<svg fill="none" height="36" viewBox="0 0 39 36" width="39" xmlns="http://www.w3.org/2000/svg" xmlns:xlink="http://www.w3.org/1999/xlink"><clipPath id="a"><path d="m0 0h39v36h-39z"/></clipPath><g clip-path="url(#a)"><path d="m12 6h-3v3h3zm3 0h-3v3h3zm-6 3h-3v3h3zm0 3h-3v3h3zm0 3h-3v3h3zm9-9h-3v3h3zm-6 12h-3v3h3zm3 3h-3v3h3zm3 3h-3v3h3zm9-18h3v3h-3zm-3 0h3v3h-3zm6 3h3v3h-3zm0 3h3v3h-3zm0 3h3v3h-3zm-9-9h3v3h-3zm6 12h3v3h-3zm-3 3h3v3h-3zm-3 3h3v3h-3zm0 3h-3v3h3zm0-18h-3v3h3z" fill="#000"/><path d="m12 9h-3v3h3zm3 3h-3v3h3zm3-3h-3v3h3zm-6 6h-3v3h3zm3 0h-3v3h3zm0 3h-3v3h3zm3-6h-3v3h3zm0 9h-3v3h3zm0-3h-3v3h3zm9-9h3v3h-3zm-3 0h3v3h-3zm3 3h3v3h-3zm-3 0h3v3h-3zm-3-3h3v3h-3zm6 6h3v3h-3zm-3 0h3v3h-3zm0 3h3v3h-3zm-3-6h3v3h-3zm0 9h3v3h-3zm0-3h3v3h-3zm0 3h-3v3h3zm0 3h-3v3h3z" fill="#f00"/><path d="m18 15h-3v3h3zm3 0h3v3h-3zm0 0h-3v3h3zm0-3h-3v3h3zm0 6h-3v3h3z" fill="#fff"/><path d="m36 13h3v3h-3zm-9 14h3v3h-3zm-9 6h3v3h-3zm-9-6h3v3h-3zm15-27h3v3h-3zm9 3h3v3h-3zm-30 0h3v3h-3zm9-3h3v3h-3zm-12 13h3v3h-3z" fill="#f00"/></g></svg>