<!-- <svg xmlns="http://www.w3.org/2000/svg" width="39" height="36" fill="none">
  <clipPath id="a">
    <path d="M0 0h39v36H0z"/>
  </clipPath>
  <g clip-path="url(#a)">
    <path fill="#000" d="M12 6H9v3h3zm3 0h-3v3h3zM9 9H6v3h3zm0 3H6v3h3zm0 3H6v3h3zm9-9h-3v3h3zm-6 12H9v3h3zm3 3h-3v3h3zm3 3h-3v3h3zm9-18h3v3h-3zm-3 0h3v3h-3zm6 3h3v3h-3zm0 3h3v3h-3zm0 3h3v3h-3zm-9-9h3v3h-3zm6 12h3v3h-3zm-3 3h3v3h-3zm-3 3h3v3h-3zm0 3h-3v3h3zm0-18h-3v3h3z"/>
    <path fill="red" d="M12 9H9v3h3zm3 3h-3v3h3zm3-3h-3v3h3zm-6 6H9v3h3zm3 0h-3v3h3zm0 3h-3v3h3zm3-6h-3v3h3zm0 9h-3v3h3zm0-3h-3v3h3zm9-9h3v3h-3zm-3 0h3v3h-3zm3 3h3v3h-3zm-3 0h3v3h-3zm-3-3h3v3h-3zm6 6h3v3h-3zm-3 0h3v3h-3zm0 3h3v3h-3zm-3-6h3v3h-3zm0 9h3v3h-3zm0-3h3v3h-3zm0 3h-3v3h3zm0 3h-3v3h3z"/>
    <path fill="#fff" d="M18 15h-3v3h3zm3 0h3v3h-3zm0 0h-3v3h3zm0-3h-3v3h3zm0 6h-3v3h3z"/>
    <path fill="red" d="M36 13h3v3h-3zm-9 14h3v3h-3zm-9 6h3v3h-3zm-9-6h3v3H9zM24 0h3v3h-3zm9 3h3v3h-3zM3 3h3v3H3zm9-3h3v3h-3zM0 13h3v3H0z"/>
  </g>
</svg> -->

<svg
                xmlns="http://www.w3.org/2000/svg"
                width="39"
                height="36"
                fill="none"
              >
                <clipPath id="a">
                  <path d="M0 0h39v36H0z" />
                </clipPath>
                <g clip-path="url(#a)">
                  <g class="heart">
                    <path
                      id="contour"
                      fill="var(--heart-icon-contour-color)"
                      d="M12 6H9v3h3zm3 0h-3v3h3zM9 9H6v3h3zm0 3H6v3h3zm0 3H6v3h3zm9-9h-3v3h3zm-6 12H9v3h3zm3 3h-3v3h3zm3 3h-3v3h3zm9-18h3v3h-3zm-3 0h3v3h-3zm6 3h3v3h-3zm0 3h3v3h-3zm0 3h3v3h-3zm-9-9h3v3h-3zm6 12h3v3h-3zm-3 3h3v3h-3zm-3 3h3v3h-3zm0 3h-3v3h3zm0-18h-3v3h3z"
                    />
                    <path
                      id="main-body"
                      fill="none"
                      d="M12 9H9v3h3zm3 3h-3v3h3zm3-3h-3v3h3zm-6 6H9v3h3zm3 0h-3v3h3zm0 3h-3v3h3zm3-6h-3v3h3zm0 9h-3v3h3zm0-3h-3v3h3zm9-9h3v3h-3zm-3 0h3v3h-3zm3 3h3v3h-3zm-3 0h3v3h-3zm-3-3h3v3h-3zm6 6h3v3h-3zm-3 0h3v3h-3zm0 3h3v3h-3zm-3-6h3v3h-3zm0 9h3v3h-3zm0-3h3v3h-3zm0 3h-3v3h3zm0 3h-3v3h3z"
                    />
                    <path
                      id="core"
                      fill="none"
                      d="M18 15h-3v3h3zm3 0h3v3h-3zm0 0h-3v3h3zm0-3h-3v3h3zm0 6h-3v3h3z"
                    />
                  </g>
                  <path
                    id="sparks"
                    fill="var(--heart-icon-body-color)"
                    d="M36 13h3v3h-3zm-9 14h3v3h-3zm-9 6h3v3h-3zm-9-6h3v3H9zM24 0h3v3h-3zm9 3h3v3h-3zM3 3h3v3H3zm9-3h3v3h-3zM0 13h3v3H0z"
                  />
                </g>
              </svg>
